<svg width="131" height="48" viewBox="0 0 131 48" fill="none" xmlns="http://www.w3.org/2000/svg">
<path fill-rule="evenodd" clip-rule="evenodd" d="M28.9558 24.348V37.696H31.3084H33.661V24.348V11H31.3084H28.9558V24.348ZM41.3804 15.1182L39.5425 15.6933V17.5542V19.415H37.9251H36.3077V21.5914V23.7677H37.8965H39.4854L39.5945 28.9183C39.7107 34.4072 39.8754 35.1103 41.3525 36.4224C42.3841 37.3391 43.7845 37.696 46.35 37.696H48.6587V35.5197V33.3434H47.0622C44.6049 33.3434 44.5417 33.2117 44.5417 28.0997V23.7677H46.6002H48.6587V21.5914V19.415H46.6002H44.5417V16.9486C44.5417 14.0848 44.5917 14.1139 41.3804 15.1182ZM11.7526 19.0898C9.175 19.7618 6.81389 21.7745 5.64171 24.2987C5.14355 25.372 5.01004 26.2269 5.00063 28.4104C4.99063 30.7907 5.09356 31.3876 5.75669 32.7825C6.69655 34.76 8.3313 36.3908 10.2822 37.2973C13.0321 38.5752 17.1485 38.0564 19.1779 36.1767L19.8396 35.5635V36.6299V37.696H22.1922H24.5447V28.5555V19.415H22.1922H19.8396V20.4849V21.5548L19.0309 20.8082C18.5859 20.3976 17.7649 19.8338 17.2061 19.5552C16.0731 18.9899 13.1059 18.7369 11.7526 19.0898ZM57.0551 19.2969C52.7137 20.6677 50.1829 24.4545 50.4867 29.1257C50.7217 32.7381 52.5049 35.4518 55.7768 37.1757C56.8834 37.7587 57.4589 37.8411 60.4217 37.8411C63.3686 37.8411 63.9632 37.757 65.0451 37.1865C66.5307 36.4033 68.3616 34.8654 68.3614 34.4014C68.3611 34.1394 66.2443 32.7486 65.0601 32.2326C64.9398 32.1801 64.4661 32.4009 64.0076 32.723C61.638 34.388 58.2741 34.135 56.4617 32.1551C55.89 31.531 55.4224 30.8903 55.4224 30.731C55.4224 30.547 57.9335 30.4417 62.3276 30.4417H69.2327L69.423 29.6933C69.757 28.3806 69.2636 25.711 68.3428 23.8477C67.38 21.9001 65.7306 20.3361 63.7997 19.5398C62.1476 18.8588 58.8222 18.7389 57.0551 19.2969ZM93.6893 19.2694C92.982 19.487 92.0225 20.025 91.5573 20.4649L90.7112 21.2646V20.3398V19.415H88.3586H86.006V28.5555V37.696H88.3586H90.7112V32.1885C90.7112 26.2205 90.9856 24.8079 92.3107 23.9511C94.1233 22.779 96.8185 23.1676 97.7907 24.7406C98.2989 25.5633 98.3551 26.2504 98.3559 31.6749L98.3571 37.696H100.71C102.747 37.696 103.065 37.6281 103.081 37.1882C103.215 33.521 102.961 24.2491 102.702 23.3878C102.52 22.7799 101.864 21.7147 101.245 21.0209C99.4496 19.0079 96.6486 18.3585 93.6893 19.2694ZM112.679 19.2354C109.886 20.2632 108.013 22.1766 106.866 25.1765C106 27.4413 106.167 30.596 107.271 32.8228C108.905 36.1183 111.745 37.9784 115.149 37.9833C117.478 37.9868 118.721 37.618 120.192 36.4857L121.295 35.6375V36.6668V37.696H123.647H126V28.5555V19.415H123.647H121.295V20.4849V21.5548L120.486 20.8082C120.041 20.3976 119.215 19.8312 118.651 19.5494C117.292 18.8718 114.121 18.705 112.679 19.2354ZM80.1158 19.7778C79.3953 20.137 78.5072 20.8743 78.1419 21.4167L77.4779 22.4027V20.9089V19.415H75.1253H72.7727V28.5555V37.696H75.1015H77.4303L77.5276 32.5454C77.6132 28.0219 77.6964 27.2753 78.2131 26.412C78.9371 25.2026 80.4872 24.348 81.9578 24.348H83.0653V21.7364V19.1249H82.2454C81.7943 19.1249 80.8362 19.4185 80.1158 19.7778ZM62.3576 23.6533C63.298 24.0938 64.5387 25.6225 64.5387 26.3409C64.5387 26.5713 63.1724 26.6694 59.9609 26.6694H55.3827L55.5845 26.0165C56.3146 23.6519 59.7756 22.4445 62.3576 23.6533ZM17.0359 23.8898C19.1603 24.7659 20.3342 27.9192 19.4176 30.2873C18.024 33.8881 13.5214 34.7499 10.9241 31.9131C8.67831 29.4603 9.42937 25.13 12.3157 23.8898C13.5129 23.3756 15.7884 23.3756 17.0359 23.8898ZM118.461 23.8776C122.27 25.4481 122.063 31.627 118.148 33.2416C113.465 35.1721 109.081 29.6663 111.973 25.4869C113.246 23.6467 116.153 22.9259 118.461 23.8776Z" fill="black"/>
</svg>