<?xml version="1.0" encoding="UTF-8" standalone="no"?>
<!DOCTYPE svg PUBLIC "-//W3C//DTD SVG 1.1//EN" "http://www.w3.org/Graphics/SVG/1.1/DTD/svg11.dtd">
<svg width="100%" height="100%" viewBox="0 0 158 19" version="1.1" xmlns="http://www.w3.org/2000/svg" xmlns:xlink="http://www.w3.org/1999/xlink" xml:space="preserve" xmlns:serif="http://www.serif.com/" style="fill-rule:evenodd;clip-rule:evenodd;stroke-linejoin:round;stroke-miterlimit:2;">
    <path d="M7.937,8.66L6.708,8.66L6.708,4.833L7.937,4.833C9.52,4.833 10.324,5.476 10.324,6.746C10.324,8.016 9.52,8.66 7.937,8.66ZM9.924,0.764L0,0.764L0,18.382L6.708,18.382L6.708,12.729L9.924,12.729C12.085,12.729 13.813,12.177 15.062,11.092C16.32,9.988 16.931,8.571 16.931,6.76C16.931,4.965 16.302,3.503 15.062,2.413C13.804,1.32 12.075,0.764 9.924,0.764ZM27.534,4.662C26.058,4.662 24.732,5.198 23.478,6.3L23.275,6.479L23.275,0.764L17.761,0.764L17.761,18.382L23.275,18.382L23.275,10.197L23.306,10.162C23.835,9.568 24.433,9.269 25.082,9.269C25.735,9.269 26.513,9.566 26.513,10.983L26.513,18.382L32.039,18.382L32.039,9.805C32.039,8.263 31.647,7.003 30.872,6.059C30.112,5.132 28.988,4.662 27.534,4.662ZM40.71,14.139C41.334,14.139 41.872,13.898 42.309,13.422C42.731,12.962 42.945,12.365 42.945,11.647C42.945,10.93 42.731,10.333 42.308,9.872C41.866,9.405 41.328,9.169 40.71,9.169C40.078,9.169 39.54,9.405 39.111,9.873C38.688,10.333 38.475,10.93 38.475,11.647C38.475,12.365 38.688,12.962 39.109,13.421C39.534,13.898 40.073,14.139 40.71,14.139ZM35.35,6.697C36.765,5.347 38.568,4.662 40.71,4.662C42.852,4.662 44.654,5.347 46.07,6.697C47.488,8.049 48.207,9.714 48.207,11.647C48.207,13.591 47.488,15.258 46.07,16.599C44.653,17.947 42.85,18.633 40.71,18.633C38.57,18.633 36.766,17.947 35.349,16.597C33.923,15.261 33.2,13.595 33.2,11.647C33.2,9.71 33.923,8.045 35.35,6.697ZM59.2,4.662C57.724,4.662 56.397,5.198 55.144,6.3L54.94,6.479L54.94,4.912L49.426,4.912L49.426,18.382L54.94,18.382L54.94,10.196L54.971,10.162C55.5,9.568 56.098,9.269 56.748,9.269C57.4,9.269 58.178,9.566 58.178,10.983L58.178,18.382L63.704,18.382L63.704,9.805C63.704,8.262 63.312,7.003 62.537,6.059C61.777,5.132 60.653,4.662 59.2,4.662ZM71.046,8.193C70.081,8.465 69.733,9.154 69.918,10.431L69.938,10.568L72.82,9.761L72.953,9.723L72.9,9.596C72.428,8.455 71.807,7.986 71.046,8.193ZM75.578,14.079C76.138,13.925 76.36,13.846 76.607,13.758L75.456,17.786C75.107,17.93 74.752,18.053 74.392,18.154C72.275,18.749 70.329,18.628 68.602,17.803C66.869,16.993 65.708,15.581 65.15,13.606C64.592,11.627 64.73,9.804 65.56,8.188C66.395,6.581 67.837,5.48 69.847,4.918C70.635,4.697 71.381,4.586 72.083,4.586C73.177,4.586 74.164,4.855 75.033,5.388C76.463,6.267 77.465,7.691 78.01,9.624L78.29,10.616L70.818,12.71L70.664,12.754L70.746,12.891C71.9,14.29 73.852,14.554 75.578,14.079Z" style="fill:white;"/>
    <path d="M94.615,6.968L89.253,6.968L89.253,0.764L82.544,0.764L82.544,18.382L89.253,18.382L89.253,11.714L94.615,11.714L94.615,18.382L101.324,18.382L101.324,0.764L94.615,0.764L94.615,6.968ZM111.889,13.422C111.45,13.898 110.913,14.139 110.289,14.139C109.652,14.139 109.113,13.898 108.688,13.421C108.267,12.962 108.054,12.365 108.054,11.647C108.054,10.93 108.267,10.333 108.689,9.873C109.119,9.405 109.657,9.169 110.289,9.169C110.907,9.169 111.444,9.405 111.886,9.872C112.31,10.333 112.524,10.93 112.524,11.647C112.524,12.365 112.31,12.962 111.889,13.422ZM110.289,4.662C108.147,4.662 106.343,5.347 104.929,6.697C103.501,8.045 102.778,9.71 102.778,11.647C102.778,13.595 103.501,15.261 104.927,16.597C106.344,17.947 108.148,18.633 110.289,18.633C112.428,18.633 114.231,17.947 115.648,16.599C117.066,15.259 117.786,13.592 117.786,11.647C117.786,9.713 117.066,8.047 115.648,6.697C114.232,5.347 112.43,4.662 110.289,4.662ZM127.611,13.173L127.644,13.138L127.644,4.912L133.171,4.912L133.171,18.382L127.644,18.382L127.644,16.812L127.439,16.997C126.239,18.082 124.884,18.633 123.409,18.633C121.953,18.633 120.826,18.157 120.059,17.223C119.285,16.279 118.892,15.027 118.892,13.502L118.892,4.912L124.406,4.912L124.406,12.312C124.406,13.448 124.891,14.025 125.849,14.025C126.478,14.025 127.07,13.738 127.611,13.173ZM142.253,11.007C141.787,10.671 141.373,10.345 140.987,10.01C140.564,9.641 140.367,9.33 140.367,9.027C140.367,8.657 140.536,8.216 141.344,8.216C141.879,8.216 142.501,8.345 143.196,8.6L143.196,5.069L142.819,4.958C141.861,4.762 140.828,4.662 139.76,4.662C138.104,4.662 136.819,5.045 135.942,5.8C135.069,6.547 134.626,7.465 134.626,8.526C134.626,9.596 134.924,10.454 135.511,11.075C136.201,11.804 136.636,12.241 136.963,12.535C137.787,13.283 138.286,13.769 138.286,14.192C138.292,14.415 138.228,14.599 138.095,14.735C137.918,14.916 137.632,15.004 137.22,15.004C136.611,15.004 135.814,14.828 134.789,14.466L134.789,17.999L135.267,18.136C136.272,18.465 137.46,18.633 138.804,18.633C140.598,18.633 141.935,18.193 142.778,17.328C143.626,16.458 144.039,15.474 144.039,14.317C144.039,13.616 143.85,12.963 143.478,12.377C143.098,11.774 142.696,11.326 142.253,11.007ZM150.756,8.194C149.791,8.466 149.443,9.154 149.628,10.43L149.648,10.568L152.53,9.761L152.663,9.723L152.611,9.596C152.137,8.455 151.517,7.986 150.756,8.194ZM150.374,12.754L150.456,12.891C151.61,14.289 153.562,14.554 155.288,14.079C155.848,13.924 156.07,13.846 156.317,13.758L155.166,17.786C154.817,17.93 154.462,18.053 154.102,18.154C151.985,18.749 150.039,18.628 148.312,17.803C146.579,16.993 145.418,15.581 144.86,13.606C144.302,11.627 144.44,9.804 145.27,8.187C146.105,6.581 147.547,5.48 149.557,4.918C150.345,4.697 151.091,4.586 151.793,4.586C152.887,4.586 153.874,4.854 154.743,5.388C156.173,6.267 157.175,7.691 157.72,9.623L158,10.616L150.529,12.71L150.374,12.754Z" style="fill:rgb(215,53,205);"/>
</svg>